<?xml version="1.0" standalone="no"?><!DOCTYPE svg PUBLIC "-//W3C//DTD SVG 1.1//EN" "http://www.w3.org/Graphics/SVG/1.1/DTD/svg11.dtd"><svg width="100%" height="100%" viewBox="0 0 256 256" version="1.1" xmlns="http://www.w3.org/2000/svg" xmlns:xlink="http://www.w3.org/1999/xlink" xml:space="preserve" style="fill-rule:evenodd;clip-rule:evenodd;stroke-linejoin:round;stroke-miterlimit:1.41421;"><g id="Layer1"><path d="M244,76c0,-30.9279 -25.0721,-56 -56,-56l-112,0c-30.9279,0 -56,25.0721 -56,56l0,112c0,30.9279 25.0721,56 56,56l112,0c30.9279,0 56,-25.0721 56,-56l0,-112Z" style="fill:#4d4d4d;"/><path d="M240,72c0,-30.9279 -25.0721,-56 -56,-56l-112,0c-30.9279,0 -56,25.0721 -56,56l0,112c0,30.9279 25.0721,56 56,56l112,0c30.9279,0 56,-25.0721 56,-56l0,-112Z" style="fill:#004aff;"/><path d="M239.016,61.4927c-47.1924,69.6982 -127.004,115.507 -217.516,115.507c-1.83779,0 -3.67116,-0.0188859 -5.5,-0.0568098l0,-104.943c0,-30.9279 25.0721,-56 56,-56l112,0c27.3365,0 50.0982,19.5873 55.0156,45.4927Z" style="fill:#326dfb;"/><circle cx="128" cy="128" r="77" style="fill:#fff;"/></g></svg>