# MagicaVoxel @ ephtracy

# material
mtllib blue_brick.mtl
usemtl palette

# normals
vn -1 0 0
vn 1 0 0
vn 0 0 1
vn 0 0 -1
vn 0 -1 0
vn 0 1 0

# texcoords
vt 0.00195313 0.5
vt 0.310547 0.5
vt 0.478516 0.5
vt 0.646484 0.5
vt 0.673828 0.5

# verts and faces
v -8 0 3
v -8 0 -3
v -8 16 3
v -8 16 -3
f -2/5/1 -3/5/1 -4/5/1
f -1/5/1 -3/5/1 -2/5/1
v -6 0 3
v -6 0 2
v -6 0 -1
v -6 0 -3
v -6 1 3
v -6 1 2
v -6 1 -1
v -6 1 -2
v -6 1 -3
f -5/5/1 -8/5/1 -9/5/1
f -4/5/1 -8/5/1 -5/5/1
f -3/5/1 -6/5/1 -7/5/1
f -2/5/1 -6/5/1 -3/5/1
f -1/5/1 -6/5/1 -2/5/1
v -5 1 3
v -5 1 2
v -5 1 -2
v -5 1 -3
v -5 2 3
v -5 2 2
v -5 2 -2
v -5 2 -3
f -4/5/1 -7/5/1 -8/5/1
f -3/5/1 -7/5/1 -4/5/1
f -2/5/1 -5/5/1 -6/5/1
f -1/5/1 -5/5/1 -2/5/1
v -3 5 3
v -3 5 2
v -3 5 -2
v -3 5 -3
v -3 11 3
v -3 11 2
v -3 11 -2
v -3 11 -3
f -4/3/1 -7/3/1 -8/3/1
f -3/3/1 -7/3/1 -4/3/1
f -2/3/1 -5/3/1 -6/3/1
f -1/3/1 -5/3/1 -2/3/1
v 5 2 3
v 5 2 2
v 5 2 -2
v 5 2 -3
v 5 3 3
v 5 3 2
v 5 3 -2
v 5 3 -3
f -4/5/1 -7/5/1 -8/5/1
f -3/5/1 -7/5/1 -4/5/1
f -2/5/1 -5/5/1 -6/5/1
f -1/5/1 -5/5/1 -2/5/1
v 6 3 3
v 6 3 2
v 6 3 -2
v 6 3 -3
v 6 13 3
v 6 13 2
v 6 13 -2
v 6 13 -3
f -4/5/1 -7/5/1 -8/5/1
f -3/5/1 -7/5/1 -4/5/1
f -2/5/1 -5/5/1 -6/5/1
f -1/5/1 -5/5/1 -2/5/1
v 7 13 3
v 7 13 2
v 7 13 -2
v 7 13 -3
v 7 14 3
v 7 14 2
v 7 14 -2
v 7 14 -3
f -4/5/1 -7/5/1 -8/5/1
f -3/5/1 -7/5/1 -4/5/1
f -2/5/1 -5/5/1 -6/5/1
f -1/5/1 -5/5/1 -2/5/1
v -7 0 3
v -7 0 2
v -7 0 -1
v -7 0 -3
v -7 1 2
v -7 1 -1
v -7 1 -2
v -7 2 2
v -7 2 -2
v -7 3 2
v -7 3 -2
v -7 13 2
v -7 13 -2
v -7 14 2
v -7 14 -2
v -7 15 3
v -7 15 2
v -7 15 -2
v -7 15 -3
f -19/5/2 -18/5/2 -15/5/2
f -17/5/2 -16/5/2 -14/5/2
f -14/5/2 -16/5/2 -13/5/2
f -19/5/2 -15/5/2 -12/5/2
f -13/5/2 -16/5/2 -11/5/2
f -19/5/2 -12/5/2 -10/5/2
f -11/5/2 -16/5/2 -9/5/2
f -19/5/2 -10/5/2 -8/5/2
f -9/5/2 -16/5/2 -7/5/2
f -19/5/2 -8/5/2 -6/5/2
f -7/5/2 -16/5/2 -5/5/2
f -19/5/2 -6/5/2 -4/5/2
f -4/5/2 -6/5/2 -3/5/2
f -5/5/2 -16/5/2 -2/5/2
f -2/5/2 -16/5/2 -1/5/2
v 3 5 3
v 3 5 2
v 3 5 -2
v 3 5 -3
v 3 11 3
v 3 11 2
v 3 11 -2
v 3 11 -3
f -8/3/2 -7/3/2 -4/3/2
f -4/3/2 -7/3/2 -3/3/2
f -6/3/2 -5/3/2 -2/3/2
f -2/3/2 -5/3/2 -1/3/2
v 8 0 3
v 8 0 -3
v 8 14 3
v 8 14 2
v 8 14 -2
v 8 14 -3
v 8 15 3
v 8 15 2
v 8 15 -2
v 8 15 -3
v 8 16 3
v 8 16 -3
f -12/5/2 -11/5/2 -10/5/2
f -10/5/2 -11/5/2 -9/5/2
f -9/5/2 -11/5/2 -8/5/2
f -8/5/2 -11/5/2 -7/5/2
f -9/4/2 -8/4/2 -5/4/2
f -5/4/2 -8/4/2 -4/4/2
f -6/5/2 -5/5/2 -2/5/2
f -4/5/2 -3/5/2 -2/5/2
f -5/5/2 -4/5/2 -2/5/2
f -2/5/2 -3/5/2 -1/5/2
v -8 0 3
v -8 16 3
v -7 0 3
v -7 15 3
v -6 0 3
v -6 1 3
v -5 1 3
v -5 2 3
v -3 5 3
v -3 11 3
v 3 5 3
v 3 11 3
v 5 2 3
v 5 3 3
v 6 3 3
v 6 13 3
v 7 13 3
v 7 14 3
v 8 0 3
v 8 14 3
v 8 15 3
v 8 16 3
f -20/5/3 -21/5/3 -22/5/3
f -19/5/3 -21/5/3 -20/5/3
f -16/5/3 -17/5/3 -18/5/3
f -12/3/3 -13/3/3 -14/3/3
f -11/3/3 -13/3/3 -12/3/3
f -10/5/3 -15/5/3 -16/5/3
f -8/5/3 -9/5/3 -10/5/3
f -6/5/3 -7/5/3 -8/5/3
f -4/5/3 -16/5/3 -18/5/3
f -4/5/3 -5/5/3 -6/5/3
f -4/5/3 -6/5/3 -8/5/3
f -4/5/3 -10/5/3 -16/5/3
f -4/5/3 -8/5/3 -10/5/3
f -3/5/3 -5/5/3 -4/5/3
f -2/5/3 -21/5/3 -19/5/3
f -1/5/3 -21/5/3 -2/5/3
v -7 0 2
v -7 1 2
v -7 2 2
v -7 3 2
v -7 13 2
v -7 14 2
v -7 15 2
v -6 0 2
v -6 1 2
v -6 2 2
v -6 3 2
v -6 13 2
v -6 14 2
v -6 15 2
v -5 1 2
v -5 2 2
v -5 3 2
v -5 4 2
v -5 12 2
v -5 13 2
v -5 14 2
v -5 15 2
v -4 3 2
v -4 4 2
v -4 5 2
v -4 11 2
v -4 12 2
v -4 13 2
v -3 4 2
v -3 5 2
v -3 11 2
v -3 12 2
v 3 4 2
v 3 5 2
v 3 11 2
v 3 12 2
v 4 3 2
v 4 4 2
v 4 5 2
v 4 11 2
v 4 12 2
v 4 13 2
v 5 2 2
v 5 3 2
v 5 4 2
v 5 12 2
v 5 13 2
v 5 14 2
v 5 15 2
v 6 3 2
v 6 13 2
v 6 14 2
v 6 15 2
v 7 13 2
v 7 14 2
v 7 15 2
v 8 14 2
v 8 15 2
f -51/4/3 -57/4/3 -58/4/3
f -50/3/3 -56/3/3 -57/3/3
f -50/4/3 -57/4/3 -51/4/3
f -49/2/3 -55/2/3 -56/2/3
f -49/3/3 -56/3/3 -50/3/3
f -48/1/3 -54/1/3 -55/1/3
f -48/2/3 -55/2/3 -49/2/3
f -47/2/3 -53/2/3 -54/2/3
f -47/1/3 -54/1/3 -48/1/3
f -46/1/3 -52/1/3 -53/1/3
f -46/2/3 -53/2/3 -47/2/3
f -45/1/3 -52/1/3 -46/1/3
f -44/4/3 -49/4/3 -50/4/3
f -43/3/3 -48/3/3 -49/3/3
f -43/4/3 -49/4/3 -44/4/3
f -42/2/3 -47/2/3 -48/2/3
f -42/3/3 -48/3/3 -43/3/3
f -41/2/3 -47/2/3 -42/2/3
f -40/2/3 -47/2/3 -41/2/3
f -39/1/3 -46/1/3 -47/1/3
f -39/2/3 -47/2/3 -40/2/3
f -38/2/3 -45/2/3 -46/2/3
f -38/1/3 -46/1/3 -39/1/3
f -37/2/3 -45/2/3 -38/2/3
f -36/4/3 -42/4/3 -43/4/3
f -36/3/3 -41/3/3 -42/3/3
f -35/2/3 -40/2/3 -41/2/3
f -35/3/3 -41/3/3 -36/3/3
f -34/2/3 -40/2/3 -35/2/3
f -33/2/3 -40/2/3 -34/2/3
f -32/1/3 -39/1/3 -40/1/3
f -32/2/3 -40/2/3 -33/2/3
f -31/2/3 -38/2/3 -39/2/3
f -31/1/3 -39/1/3 -32/1/3
f -30/4/3 -35/4/3 -36/4/3
f -30/3/3 -34/3/3 -35/3/3
f -29/2/3 -33/2/3 -34/2/3
f -29/3/3 -34/3/3 -30/3/3
f -28/1/3 -32/1/3 -33/1/3
f -28/2/3 -33/2/3 -29/2/3
f -27/2/3 -31/2/3 -32/2/3
f -27/1/3 -32/1/3 -28/1/3
f -26/4/3 -30/4/3 -36/4/3
f -26/4/3 -29/4/3 -30/4/3
f -25/4/3 -29/4/3 -26/4/3
f -24/2/3 -27/2/3 -28/2/3
f -23/2/3 -31/2/3 -27/2/3
f -23/2/3 -27/2/3 -24/2/3
f -22/4/3 -36/4/3 -43/4/3
f -22/4/3 -26/4/3 -36/4/3
f -21/5/3 -25/5/3 -26/5/3
f -21/4/3 -26/4/3 -22/4/3
f -20/4/3 -24/4/3 -25/4/3
f -20/5/3 -25/5/3 -21/5/3
f -19/3/3 -23/3/3 -24/3/3
f -19/4/3 -24/4/3 -20/4/3
f -18/2/3 -31/2/3 -23/2/3
f -18/3/3 -23/3/3 -19/3/3
f -17/2/3 -38/2/3 -31/2/3
f -17/2/3 -31/2/3 -18/2/3
f -16/4/3 -22/4/3 -43/4/3
f -15/5/3 -21/5/3 -22/5/3
f -15/4/3 -22/4/3 -16/4/3
f -14/4/3 -19/4/3 -20/4/3
f -14/5/3 -21/5/3 -15/5/3
f -14/4/3 -18/4/3 -19/4/3
f -14/4/3 -20/4/3 -21/4/3
f -13/3/3 -17/3/3 -18/3/3
f -13/4/3 -18/4/3 -14/4/3
f -12/2/3 -38/2/3 -17/2/3
f -12/3/3 -17/3/3 -13/3/3
f -11/1/3 -37/1/3 -38/1/3
f -11/2/3 -38/2/3 -12/2/3
f -10/1/3 -37/1/3 -11/1/3
f -9/4/3 -12/4/3 -13/4/3
f -9/4/3 -13/4/3 -14/4/3
f -9/4/3 -14/4/3 -15/4/3
f -8/3/3 -11/3/3 -12/3/3
f -8/4/3 -12/4/3 -9/4/3
f -7/2/3 -10/2/3 -11/2/3
f -7/3/3 -11/3/3 -8/3/3
f -6/2/3 -10/2/3 -7/2/3
f -5/4/3 -7/4/3 -8/4/3
f -4/3/3 -6/3/3 -7/3/3
f -4/4/3 -7/4/3 -5/4/3
f -3/3/3 -6/3/3 -4/3/3
f -2/4/3 -3/4/3 -4/4/3
f -1/4/3 -3/4/3 -2/4/3
v -7 0 -1
v -7 1 -1
v -6 0 -1
v -6 1 -1
f -4/4/4 -3/4/4 -2/4/4
f -2/4/4 -3/4/4 -1/4/4
v -7 1 -2
v -7 2 -2
v -7 3 -2
v -7 13 -2
v -7 14 -2
v -7 15 -2
v -6 1 -2
v -6 2 -2
v -6 3 -2
v -6 13 -2
v -6 14 -2
v -6 15 -2
v -5 1 -2
v -5 2 -2
v -5 3 -2
v -5 4 -2
v -5 12 -2
v -5 13 -2
v -5 14 -2
v -5 15 -2
v -4 3 -2
v -4 4 -2
v -4 5 -2
v -4 11 -2
v -4 12 -2
v -4 13 -2
v -3 4 -2
v -3 5 -2
v -3 11 -2
v -3 12 -2
v 3 4 -2
v 3 5 -2
v 3 11 -2
v 3 12 -2
v 4 3 -2
v 4 4 -2
v 4 5 -2
v 4 11 -2
v 4 12 -2
v 4 13 -2
v 5 2 -2
v 5 3 -2
v 5 4 -2
v 5 12 -2
v 5 13 -2
v 5 14 -2
v 5 15 -2
v 6 3 -2
v 6 13 -2
v 6 14 -2
v 6 15 -2
v 7 13 -2
v 7 14 -2
v 7 15 -2
v 8 14 -2
v 8 15 -2
f -56/3/4 -55/3/4 -50/3/4
f -55/2/4 -54/2/4 -49/2/4
f -50/3/4 -55/3/4 -49/3/4
f -54/1/4 -53/1/4 -48/1/4
f -49/2/4 -54/2/4 -48/2/4
f -53/2/4 -52/2/4 -47/2/4
f -48/1/4 -53/1/4 -47/1/4
f -52/1/4 -51/1/4 -46/1/4
f -47/2/4 -52/2/4 -46/2/4
f -46/1/4 -51/1/4 -45/1/4
f -50/4/4 -49/4/4 -44/4/4
f -49/3/4 -48/3/4 -43/3/4
f -44/4/4 -49/4/4 -43/4/4
f -48/2/4 -47/2/4 -42/2/4
f -43/3/4 -48/3/4 -42/3/4
f -42/2/4 -47/2/4 -41/2/4
f -41/2/4 -47/2/4 -40/2/4
f -47/1/4 -46/1/4 -39/1/4
f -40/2/4 -47/2/4 -39/2/4
f -46/2/4 -45/2/4 -38/2/4
f -39/1/4 -46/1/4 -38/1/4
f -38/2/4 -45/2/4 -37/2/4
f -43/4/4 -42/4/4 -36/4/4
f -42/3/4 -41/3/4 -36/3/4
f -41/2/4 -40/2/4 -35/2/4
f -36/3/4 -41/3/4 -35/3/4
f -35/2/4 -40/2/4 -34/2/4
f -34/2/4 -40/2/4 -33/2/4
f -40/1/4 -39/1/4 -32/1/4
f -33/2/4 -40/2/4 -32/2/4
f -39/2/4 -38/2/4 -31/2/4
f -32/1/4 -39/1/4 -31/1/4
f -36/4/4 -35/4/4 -30/4/4
f -35/3/4 -34/3/4 -30/3/4
f -34/2/4 -33/2/4 -29/2/4
f -30/3/4 -34/3/4 -29/3/4
f -33/1/4 -32/1/4 -28/1/4
f -29/2/4 -33/2/4 -28/2/4
f -32/2/4 -31/2/4 -27/2/4
f -28/1/4 -32/1/4 -27/1/4
f -36/4/4 -30/4/4 -26/4/4
f -30/4/4 -29/4/4 -26/4/4
f -26/4/4 -29/4/4 -25/4/4
f -28/2/4 -27/2/4 -24/2/4
f -27/2/4 -31/2/4 -23/2/4
f -24/2/4 -27/2/4 -23/2/4
f -43/4/4 -36/4/4 -22/4/4
f -36/4/4 -26/4/4 -22/4/4
f -26/5/4 -25/5/4 -21/5/4
f -22/4/4 -26/4/4 -21/4/4
f -25/4/4 -24/4/4 -20/4/4
f -21/5/4 -25/5/4 -20/5/4
f -24/3/4 -23/3/4 -19/3/4
f -20/4/4 -24/4/4 -19/4/4
f -23/2/4 -31/2/4 -18/2/4
f -19/3/4 -23/3/4 -18/3/4
f -31/2/4 -38/2/4 -17/2/4
f -18/2/4 -31/2/4 -17/2/4
f -43/4/4 -22/4/4 -16/4/4
f -22/5/4 -21/5/4 -15/5/4
f -16/4/4 -22/4/4 -15/4/4
f -20/4/4 -19/4/4 -14/4/4
f -15/5/4 -21/5/4 -14/5/4
f -19/4/4 -18/4/4 -14/4/4
f -21/4/4 -20/4/4 -14/4/4
f -18/3/4 -17/3/4 -13/3/4
f -14/4/4 -18/4/4 -13/4/4
f -17/2/4 -38/2/4 -12/2/4
f -13/3/4 -17/3/4 -12/3/4
f -38/1/4 -37/1/4 -11/1/4
f -12/2/4 -38/2/4 -11/2/4
f -11/1/4 -37/1/4 -10/1/4
f -13/4/4 -12/4/4 -9/4/4
f -14/4/4 -13/4/4 -9/4/4
f -15/4/4 -14/4/4 -9/4/4
f -12/3/4 -11/3/4 -8/3/4
f -9/4/4 -12/4/4 -8/4/4
f -11/2/4 -10/2/4 -7/2/4
f -8/3/4 -11/3/4 -7/3/4
f -7/2/4 -10/2/4 -6/2/4
f -8/4/4 -7/4/4 -5/4/4
f -7/3/4 -6/3/4 -4/3/4
f -5/4/4 -7/4/4 -4/4/4
f -4/3/4 -6/3/4 -3/3/4
f -4/4/4 -3/4/4 -2/4/4
f -2/4/4 -3/4/4 -1/4/4
v -8 0 -3
v -8 16 -3
v -7 0 -3
v -7 15 -3
v -6 0 -3
v -6 1 -3
v -5 1 -3
v -5 2 -3
v -3 5 -3
v -3 11 -3
v 3 5 -3
v 3 11 -3
v 5 2 -3
v 5 3 -3
v 6 3 -3
v 6 13 -3
v 7 13 -3
v 7 14 -3
v 8 0 -3
v 8 14 -3
v 8 15 -3
v 8 16 -3
f -22/5/4 -21/5/4 -20/5/4
f -20/5/4 -21/5/4 -19/5/4
f -18/5/4 -17/5/4 -16/5/4
f -14/3/4 -13/3/4 -12/3/4
f -12/3/4 -13/3/4 -11/3/4
f -16/5/4 -15/5/4 -10/5/4
f -10/5/4 -9/5/4 -8/5/4
f -8/5/4 -7/5/4 -6/5/4
f -18/5/4 -16/5/4 -4/5/4
f -6/5/4 -5/5/4 -4/5/4
f -8/5/4 -6/5/4 -4/5/4
f -16/5/4 -10/5/4 -4/5/4
f -10/5/4 -8/5/4 -4/5/4
f -4/5/4 -5/5/4 -3/5/4
f -19/5/4 -21/5/4 -2/5/4
f -2/5/4 -21/5/4 -1/5/4
v -8 0 3
v -7 0 3
v -6 0 3
v 8 0 3
v -7 0 2
v -6 0 2
v -7 0 -1
v -6 0 -1
v -8 0 -3
v -7 0 -3
v -6 0 -3
v 8 0 -3
f -8/5/5 -11/5/5 -12/5/5
f -7/5/5 -9/5/5 -10/5/5
f -6/5/5 -8/5/5 -12/5/5
f -6/4/5 -7/4/5 -8/4/5
f -5/5/5 -9/5/5 -7/5/5
f -5/4/5 -7/4/5 -6/4/5
f -4/5/5 -6/5/5 -12/5/5
f -3/5/5 -6/5/5 -4/5/5
f -2/5/5 -9/5/5 -5/5/5
f -1/5/5 -9/5/5 -2/5/5
v -7 1 -1
v -6 1 -1
v -7 1 -2
v -6 1 -2
f -2/3/5 -3/3/5 -4/3/5
f -1/3/5 -3/3/5 -2/3/5
v -3 5 3
v 3 5 3
v -3 5 2
v 3 5 2
v -3 5 -2
v 3 5 -2
v -3 5 -3
v 3 5 -3
f -6/3/5 -7/3/5 -8/3/5
f -5/3/5 -7/3/5 -6/3/5
f -2/3/5 -3/3/5 -4/3/5
f -1/3/5 -3/3/5 -2/3/5
v -7 15 3
v 8 15 3
v -7 15 2
v -6 15 2
v -5 15 2
v 5 15 2
v 6 15 2
v 7 15 2
v 8 15 2
v -7 15 -2
v -6 15 -2
v -5 15 -2
v 5 15 -2
v 6 15 -2
v 7 15 -2
v 8 15 -2
v -7 15 -3
v 8 15 -3
f -16/5/5 -17/5/5 -18/5/5
f -15/5/5 -17/5/5 -16/5/5
f -14/5/5 -17/5/5 -15/5/5
f -13/5/5 -17/5/5 -14/5/5
f -12/5/5 -17/5/5 -13/5/5
f -11/5/5 -17/5/5 -12/5/5
f -10/5/5 -17/5/5 -11/5/5
f -2/5/5 -8/5/5 -9/5/5
f -2/5/5 -3/5/5 -4/5/5
f -2/5/5 -4/5/5 -5/5/5
f -2/5/5 -5/5/5 -6/5/5
f -2/5/5 -6/5/5 -7/5/5
f -2/5/5 -7/5/5 -8/5/5
f -1/5/5 -3/5/5 -2/5/5
v -6 1 3
v -5 1 3
v -6 1 2
v -5 1 2
v -6 1 -2
v -5 1 -2
v -6 1 -3
v -5 1 -3
f -8/5/6 -7/5/6 -6/5/6
f -6/5/6 -7/5/6 -5/5/6
f -4/5/6 -3/5/6 -2/5/6
f -2/5/6 -3/5/6 -1/5/6
v -5 2 3
v 5 2 3
v -5 2 2
v 5 2 2
v -5 2 -2
v 5 2 -2
v -5 2 -3
v 5 2 -3
f -8/5/6 -7/5/6 -6/5/6
f -6/5/6 -7/5/6 -5/5/6
f -4/5/6 -3/5/6 -2/5/6
f -2/5/6 -3/5/6 -1/5/6
v 5 3 3
v 6 3 3
v 5 3 2
v 6 3 2
v 5 3 -2
v 6 3 -2
v 5 3 -3
v 6 3 -3
f -8/5/6 -7/5/6 -6/5/6
f -6/5/6 -7/5/6 -5/5/6
f -4/5/6 -3/5/6 -2/5/6
f -2/5/6 -3/5/6 -1/5/6
v -3 11 3
v 3 11 3
v -3 11 2
v 3 11 2
v -3 11 -2
v 3 11 -2
v -3 11 -3
v 3 11 -3
f -8/3/6 -7/3/6 -6/3/6
f -6/3/6 -7/3/6 -5/3/6
f -4/3/6 -3/3/6 -2/3/6
f -2/3/6 -3/3/6 -1/3/6
v 6 13 3
v 7 13 3
v 6 13 2
v 7 13 2
v 6 13 -2
v 7 13 -2
v 6 13 -3
v 7 13 -3
f -8/5/6 -7/5/6 -6/5/6
f -6/5/6 -7/5/6 -5/5/6
f -4/5/6 -3/5/6 -2/5/6
f -2/5/6 -3/5/6 -1/5/6
v 7 14 3
v 8 14 3
v 7 14 2
v 8 14 2
v 7 14 -2
v 8 14 -2
v 7 14 -3
v 8 14 -3
f -8/5/6 -7/5/6 -6/5/6
f -6/5/6 -7/5/6 -5/5/6
f -4/5/6 -3/5/6 -2/5/6
f -2/5/6 -3/5/6 -1/5/6
v -8 16 3
v 8 16 3
v -8 16 -3
v 8 16 -3
f -4/5/6 -3/5/6 -2/5/6
f -2/5/6 -3/5/6 -1/5/6
