# MagicaVoxel @ ephtracy

# material
mtllib goonba_1.mtl
usemtl palette

# normals
vn -1 0 0
vn 1 0 0
vn 0 0 1
vn 0 0 -1
vn 0 -1 0
vn 0 1 0

# texcoords
vt 0.00195312 0.5
vt 0.0605469 0.5
vt 0.228516 0.5
vt 0.533203 0.5
vt 0.673828 0.5

# verts and faces
v -8 0 0.5
v -8 0 -0.5
v -8 1 0.5
v -8 1 -0.5
v -8 2 0.5
v -8 2 -0.5
v -8 3 0.5
v -8 3 -0.5
f -6/5/1 -7/5/1 -8/5/1
f -5/5/1 -7/5/1 -6/5/1
f -2/5/1 -3/5/1 -4/5/1
f -1/5/1 -3/5/1 -2/5/1
v -7 0 1.5
v -7 0 0.5
v -7 0 -0.5
v -7 0 -1.5
v -7 1 1.5
v -7 1 0.5
v -7 1 -0.5
v -7 1 -1.5
v -7 2 1.5
v -7 2 0.5
v -7 2 -0.5
v -7 2 -1.5
v -7 3 1.5
v -7 3 0.5
v -7 3 -0.5
v -7 3 -1.5
v -7 4 0.5
v -7 4 -0.5
f -14/3/1 -17/3/1 -18/3/1
f -13/3/1 -17/3/1 -14/3/1
f -12/3/1 -15/3/1 -16/3/1
f -11/3/1 -15/3/1 -12/3/1
f -9/5/1 -12/5/1 -13/5/1
f -8/5/1 -12/5/1 -9/5/1
f -6/3/1 -9/3/1 -10/3/1
f -5/3/1 -9/3/1 -6/3/1
f -4/3/1 -7/3/1 -8/3/1
f -3/3/1 -7/3/1 -4/3/1
f -2/5/1 -4/5/1 -5/5/1
f -1/5/1 -4/5/1 -2/5/1
v -6 1 1.5
v -6 1 0.5
v -6 1 -0.5
v -6 1 -1.5
v -6 2 1.5
v -6 2 0.5
v -6 2 -0.5
v -6 2 -1.5
f -4/4/1 -7/4/1 -8/4/1
f -3/4/1 -7/4/1 -4/4/1
f -2/4/1 -5/4/1 -6/4/1
f -1/4/1 -5/4/1 -2/4/1
v -5 3 1.5
v -5 3 0.5
v -5 3 -0.5
v -5 3 -1.5
v -5 4 1.5
v -5 4 0.5
v -5 4 -0.5
v -5 4 -1.5
v -5 5 0.5
v -5 5 -0.5
f -6/4/1 -9/4/1 -10/4/1
f -5/4/1 -9/4/1 -6/4/1
f -4/4/1 -7/4/1 -8/4/1
f -3/4/1 -7/4/1 -4/4/1
f -2/5/1 -4/5/1 -5/5/1
f -1/5/1 -4/5/1 -2/5/1
v -1 2 1.5
v -1 2 0.5
v -1 2 -0.5
v -1 2 -1.5
v -1 3 1.5
v -1 3 0.5
v -1 3 -0.5
v -1 3 -1.5
v -1 4 1.5
v -1 4 0.5
v -1 4 -0.5
v -1 4 -1.5
f -8/3/1 -11/3/1 -12/3/1
f -7/3/1 -11/3/1 -8/3/1
f -6/3/1 -9/3/1 -10/3/1
f -5/3/1 -9/3/1 -6/3/1
f -4/4/1 -7/4/1 -8/4/1
f -3/4/1 -7/4/1 -4/4/1
f -2/4/1 -5/4/1 -6/4/1
f -1/4/1 -5/4/1 -2/4/1
v 2 4 0.5
v 2 4 -0.5
v 2 5 0.5
v 2 5 -0.5
f -2/5/1 -3/5/1 -4/5/1
f -1/5/1 -3/5/1 -2/5/1
v 3 2 1.5
v 3 2 0.5
v 3 2 -0.5
v 3 2 -1.5
v 3 3 1.5
v 3 3 0.5
v 3 3 -0.5
v 3 3 -1.5
f -4/1/1 -7/1/1 -8/1/1
f -3/1/1 -7/1/1 -4/1/1
f -2/1/1 -5/1/1 -6/1/1
f -1/1/1 -5/1/1 -2/1/1
v 4 3 1.5
v 4 3 0.5
v 4 3 -0.5
v 4 3 -1.5
v 4 4 1.5
v 4 4 0.5
v 4 4 -0.5
v 4 4 -1.5
f -4/4/1 -7/4/1 -8/4/1
f -3/4/1 -7/4/1 -4/4/1
f -2/4/1 -5/4/1 -6/4/1
f -1/4/1 -5/4/1 -2/4/1
v -4 3 1.5
v -4 3 0.5
v -4 3 -0.5
v -4 3 -1.5
v -4 4 1.5
v -4 4 0.5
v -4 4 -0.5
v -4 4 -1.5
f -8/4/2 -7/4/2 -4/4/2
f -4/4/2 -7/4/2 -3/4/2
f -6/4/2 -5/4/2 -2/4/2
f -2/4/2 -5/4/2 -1/4/2
v -3 2 1.5
v -3 2 0.5
v -3 2 -0.5
v -3 2 -1.5
v -3 3 1.5
v -3 3 0.5
v -3 3 -0.5
v -3 3 -1.5
f -8/1/2 -7/1/2 -4/1/2
f -4/1/2 -7/1/2 -3/1/2
f -6/1/2 -5/1/2 -2/1/2
f -2/1/2 -5/1/2 -1/1/2
v -2 4 0.5
v -2 4 -0.5
v -2 5 0.5
v -2 5 -0.5
f -4/5/2 -3/5/2 -2/5/2
f -2/5/2 -3/5/2 -1/5/2
v 1 2 1.5
v 1 2 0.5
v 1 2 -0.5
v 1 2 -1.5
v 1 3 1.5
v 1 3 0.5
v 1 3 -0.5
v 1 3 -1.5
v 1 4 1.5
v 1 4 0.5
v 1 4 -0.5
v 1 4 -1.5
f -12/3/2 -11/3/2 -8/3/2
f -8/3/2 -11/3/2 -7/3/2
f -10/3/2 -9/3/2 -6/3/2
f -6/3/2 -9/3/2 -5/3/2
f -8/4/2 -7/4/2 -4/4/2
f -4/4/2 -7/4/2 -3/4/2
f -6/4/2 -5/4/2 -2/4/2
f -2/4/2 -5/4/2 -1/4/2
v 5 3 1.5
v 5 3 0.5
v 5 3 -0.5
v 5 3 -1.5
v 5 4 1.5
v 5 4 0.5
v 5 4 -0.5
v 5 4 -1.5
v 5 5 0.5
v 5 5 -0.5
f -10/4/2 -9/4/2 -6/4/2
f -6/4/2 -9/4/2 -5/4/2
f -8/4/2 -7/4/2 -4/4/2
f -4/4/2 -7/4/2 -3/4/2
f -5/5/2 -4/5/2 -2/5/2
f -2/5/2 -4/5/2 -1/5/2
v 6 1 1.5
v 6 1 0.5
v 6 1 -0.5
v 6 1 -1.5
v 6 2 1.5
v 6 2 0.5
v 6 2 -0.5
v 6 2 -1.5
f -8/4/2 -7/4/2 -4/4/2
f -4/4/2 -7/4/2 -3/4/2
f -6/4/2 -5/4/2 -2/4/2
f -2/4/2 -5/4/2 -1/4/2
v 7 0 1.5
v 7 0 0.5
v 7 0 -0.5
v 7 0 -1.5
v 7 1 1.5
v 7 1 0.5
v 7 1 -0.5
v 7 1 -1.5
v 7 2 1.5
v 7 2 0.5
v 7 2 -0.5
v 7 2 -1.5
v 7 3 1.5
v 7 3 0.5
v 7 3 -0.5
v 7 3 -1.5
v 7 4 0.5
v 7 4 -0.5
f -18/3/2 -17/3/2 -14/3/2
f -14/3/2 -17/3/2 -13/3/2
f -16/3/2 -15/3/2 -12/3/2
f -12/3/2 -15/3/2 -11/3/2
f -13/5/2 -12/5/2 -9/5/2
f -9/5/2 -12/5/2 -8/5/2
f -10/3/2 -9/3/2 -6/3/2
f -6/3/2 -9/3/2 -5/3/2
f -8/3/2 -7/3/2 -4/3/2
f -4/3/2 -7/3/2 -3/3/2
f -5/5/2 -4/5/2 -2/5/2
f -2/5/2 -4/5/2 -1/5/2
v 8 0 0.5
v 8 0 -0.5
v 8 1 0.5
v 8 1 -0.5
v 8 2 0.5
v 8 2 -0.5
v 8 3 0.5
v 8 3 -0.5
f -8/5/2 -7/5/2 -6/5/2
f -6/5/2 -7/5/2 -5/5/2
f -4/5/2 -3/5/2 -2/5/2
f -2/5/2 -3/5/2 -1/5/2
v -7 0 1.5
v -7 1 1.5
v -7 2 1.5
v -7 3 1.5
v -6 1 1.5
v -6 2 1.5
v -6 3 1.5
v -5 0 1.5
v -5 1 1.5
v -5 2 1.5
v -5 3 1.5
v -5 4 1.5
v -4 3 1.5
v -4 4 1.5
v -3 0 1.5
v -3 1 1.5
v -3 2 1.5
v -3 3 1.5
v -2 0 1.5
v -2 1 1.5
v -2 2 1.5
v -1 2 1.5
v -1 3 1.5
v -1 4 1.5
v 1 2 1.5
v 1 3 1.5
v 1 4 1.5
v 2 0 1.5
v 2 1 1.5
v 2 2 1.5
v 3 0 1.5
v 3 1 1.5
v 3 2 1.5
v 3 3 1.5
v 4 3 1.5
v 4 4 1.5
v 5 0 1.5
v 5 1 1.5
v 5 2 1.5
v 5 3 1.5
v 5 4 1.5
v 6 1 1.5
v 6 2 1.5
v 6 3 1.5
v 7 0 1.5
v 7 1 1.5
v 7 2 1.5
v 7 3 1.5
f -44/3/3 -47/3/3 -48/3/3
f -43/3/3 -45/3/3 -46/3/3
f -42/3/3 -45/3/3 -43/3/3
f -41/3/3 -44/3/3 -48/3/3
f -40/4/3 -43/4/3 -44/4/3
f -40/3/3 -44/3/3 -41/3/3
f -39/2/3 -42/2/3 -43/2/3
f -39/4/3 -43/4/3 -40/4/3
f -38/2/3 -42/2/3 -39/2/3
f -36/1/3 -38/1/3 -39/1/3
f -36/4/3 -37/4/3 -38/4/3
f -35/4/3 -37/4/3 -36/4/3
f -34/4/3 -40/4/3 -41/4/3
f -33/2/3 -39/2/3 -40/2/3
f -33/4/3 -40/4/3 -34/4/3
f -32/1/3 -36/1/3 -39/1/3
f -32/2/3 -39/2/3 -33/2/3
f -31/1/3 -36/1/3 -32/1/3
f -30/2/3 -33/2/3 -34/2/3
f -30/2/3 -32/2/3 -33/2/3
f -29/2/3 -32/2/3 -30/2/3
f -28/2/3 -32/2/3 -29/2/3
f -27/3/3 -28/3/3 -29/3/3
f -24/3/3 -26/3/3 -27/3/3
f -24/3/3 -27/3/3 -29/3/3
f -23/4/3 -25/4/3 -26/4/3
f -23/3/3 -26/3/3 -24/3/3
f -22/4/3 -25/4/3 -23/4/3
f -21/1/3 -29/1/3 -30/1/3
f -20/3/3 -24/3/3 -29/3/3
f -20/1/3 -29/1/3 -21/1/3
f -19/3/3 -24/3/3 -20/3/3
f -18/2/3 -20/2/3 -21/2/3
f -18/2/3 -19/2/3 -20/2/3
f -17/2/3 -19/2/3 -18/2/3
f -16/2/3 -19/2/3 -17/2/3
f -14/1/3 -15/1/3 -16/1/3
f -12/4/3 -17/4/3 -18/4/3
f -11/2/3 -16/2/3 -17/2/3
f -11/4/3 -17/4/3 -12/4/3
f -10/1/3 -14/1/3 -16/1/3
f -10/2/3 -16/2/3 -11/2/3
f -9/4/3 -13/4/3 -14/4/3
f -9/1/3 -14/1/3 -10/1/3
f -8/4/3 -13/4/3 -9/4/3
f -7/4/3 -10/4/3 -11/4/3
f -7/3/3 -11/3/3 -12/3/3
f -6/2/3 -9/2/3 -10/2/3
f -6/4/3 -10/4/3 -7/4/3
f -5/2/3 -9/2/3 -6/2/3
f -4/3/3 -7/3/3 -12/3/3
f -3/3/3 -7/3/3 -4/3/3
f -2/3/3 -5/3/3 -6/3/3
f -1/3/3 -5/3/3 -2/3/3
v -8 0 0.5
v -8 1 0.5
v -8 2 0.5
v -8 3 0.5
v -7 0 0.5
v -7 1 0.5
v -7 2 0.5
v -7 3 0.5
v -7 4 0.5
v -6 1 0.5
v -6 2 0.5
v -6 3 0.5
v -5 3 0.5
v -5 4 0.5
v -5 5 0.5
v -4 3 0.5
v -4 4 0.5
v -3 2 0.5
v -3 3 0.5
v -2 2 0.5
v -2 4 0.5
v -2 5 0.5
v -1 2 0.5
v -1 3 0.5
v -1 4 0.5
v 1 2 0.5
v 1 3 0.5
v 1 4 0.5
v 2 2 0.5
v 2 4 0.5
v 2 5 0.5
v 3 2 0.5
v 3 3 0.5
v 4 3 0.5
v 4 4 0.5
v 5 3 0.5
v 5 4 0.5
v 5 5 0.5
v 6 1 0.5
v 6 2 0.5
v 6 3 0.5
v 7 0 0.5
v 7 1 0.5
v 7 2 0.5
v 7 3 0.5
v 7 4 0.5
v 8 0 0.5
v 8 1 0.5
v 8 2 0.5
v 8 3 0.5
f -46/5/3 -49/5/3 -50/5/3
f -45/5/3 -49/5/3 -46/5/3
f -44/5/3 -47/5/3 -48/5/3
f -43/5/3 -47/5/3 -44/5/3
f -41/5/3 -44/5/3 -45/5/3
f -40/5/3 -44/5/3 -41/5/3
f -39/5/3 -42/5/3 -43/5/3
f -38/5/3 -42/5/3 -39/5/3
f -37/5/3 -42/5/3 -38/5/3
f -34/5/3 -36/5/3 -37/5/3
f -32/5/3 -34/5/3 -35/5/3
f -31/5/3 -32/5/3 -33/5/3
f -30/5/3 -36/5/3 -34/5/3
f -30/5/3 -32/5/3 -31/5/3
f -30/5/3 -34/5/3 -32/5/3
f -29/5/3 -36/5/3 -30/5/3
f -28/5/3 -30/5/3 -31/5/3
f -27/5/3 -30/5/3 -28/5/3
f -26/5/3 -30/5/3 -27/5/3
f -22/5/3 -24/5/3 -25/5/3
f -22/5/3 -23/5/3 -24/5/3
f -21/5/3 -23/5/3 -22/5/3
f -19/5/3 -21/5/3 -22/5/3
f -19/5/3 -20/5/3 -21/5/3
f -18/5/3 -20/5/3 -19/5/3
f -17/5/3 -20/5/3 -18/5/3
f -16/5/3 -20/5/3 -17/5/3
f -14/5/3 -20/5/3 -16/5/3
f -13/5/3 -20/5/3 -14/5/3
f -10/5/3 -14/5/3 -15/5/3
f -8/5/3 -11/5/3 -12/5/3
f -7/5/3 -11/5/3 -8/5/3
f -6/5/3 -14/5/3 -10/5/3
f -5/5/3 -14/5/3 -6/5/3
f -4/5/3 -8/5/3 -9/5/3
f -3/5/3 -8/5/3 -4/5/3
f -2/5/3 -6/5/3 -7/5/3
f -1/5/3 -6/5/3 -2/5/3
v -8 0 -0.5
v -8 1 -0.5
v -8 2 -0.5
v -8 3 -0.5
v -7 0 -0.5
v -7 1 -0.5
v -7 2 -0.5
v -7 3 -0.5
v -7 4 -0.5
v -6 1 -0.5
v -6 2 -0.5
v -6 3 -0.5
v -5 3 -0.5
v -5 4 -0.5
v -5 5 -0.5
v -4 3 -0.5
v -4 4 -0.5
v -3 2 -0.5
v -3 3 -0.5
v -2 2 -0.5
v -2 4 -0.5
v -2 5 -0.5
v -1 2 -0.5
v -1 3 -0.5
v -1 4 -0.5
v 1 2 -0.5
v 1 3 -0.5
v 1 4 -0.5
v 2 2 -0.5
v 2 4 -0.5
v 2 5 -0.5
v 3 2 -0.5
v 3 3 -0.5
v 4 3 -0.5
v 4 4 -0.5
v 5 3 -0.5
v 5 4 -0.5
v 5 5 -0.5
v 6 1 -0.5
v 6 2 -0.5
v 6 3 -0.5
v 7 0 -0.5
v 7 1 -0.5
v 7 2 -0.5
v 7 3 -0.5
v 7 4 -0.5
v 8 0 -0.5
v 8 1 -0.5
v 8 2 -0.5
v 8 3 -0.5
f -50/5/4 -49/5/4 -46/5/4
f -46/5/4 -49/5/4 -45/5/4
f -48/5/4 -47/5/4 -44/5/4
f -44/5/4 -47/5/4 -43/5/4
f -45/5/4 -44/5/4 -41/5/4
f -41/5/4 -44/5/4 -40/5/4
f -43/5/4 -42/5/4 -39/5/4
f -39/5/4 -42/5/4 -38/5/4
f -38/5/4 -42/5/4 -37/5/4
f -37/5/4 -36/5/4 -34/5/4
f -35/5/4 -34/5/4 -32/5/4
f -33/5/4 -32/5/4 -31/5/4
f -34/5/4 -36/5/4 -30/5/4
f -31/5/4 -32/5/4 -30/5/4
f -32/5/4 -34/5/4 -30/5/4
f -30/5/4 -36/5/4 -29/5/4
f -31/5/4 -30/5/4 -28/5/4
f -28/5/4 -30/5/4 -27/5/4
f -27/5/4 -30/5/4 -26/5/4
f -25/5/4 -24/5/4 -22/5/4
f -24/5/4 -23/5/4 -22/5/4
f -22/5/4 -23/5/4 -21/5/4
f -22/5/4 -21/5/4 -19/5/4
f -21/5/4 -20/5/4 -19/5/4
f -19/5/4 -20/5/4 -18/5/4
f -18/5/4 -20/5/4 -17/5/4
f -17/5/4 -20/5/4 -16/5/4
f -16/5/4 -20/5/4 -14/5/4
f -14/5/4 -20/5/4 -13/5/4
f -15/5/4 -14/5/4 -10/5/4
f -12/5/4 -11/5/4 -8/5/4
f -8/5/4 -11/5/4 -7/5/4
f -10/5/4 -14/5/4 -6/5/4
f -6/5/4 -14/5/4 -5/5/4
f -9/5/4 -8/5/4 -4/5/4
f -4/5/4 -8/5/4 -3/5/4
f -7/5/4 -6/5/4 -2/5/4
f -2/5/4 -6/5/4 -1/5/4
v -7 0 -1.5
v -7 1 -1.5
v -7 2 -1.5
v -7 3 -1.5
v -6 1 -1.5
v -6 2 -1.5
v -6 3 -1.5
v -5 0 -1.5
v -5 1 -1.5
v -5 2 -1.5
v -5 3 -1.5
v -5 4 -1.5
v -4 3 -1.5
v -4 4 -1.5
v -3 0 -1.5
v -3 1 -1.5
v -3 2 -1.5
v -3 3 -1.5
v -2 0 -1.5
v -2 1 -1.5
v -2 2 -1.5
v -1 2 -1.5
v -1 3 -1.5
v -1 4 -1.5
v 1 2 -1.5
v 1 3 -1.5
v 1 4 -1.5
v 2 0 -1.5
v 2 1 -1.5
v 2 2 -1.5
v 3 0 -1.5
v 3 1 -1.5
v 3 2 -1.5
v 3 3 -1.5
v 4 3 -1.5
v 4 4 -1.5
v 5 0 -1.5
v 5 1 -1.5
v 5 2 -1.5
v 5 3 -1.5
v 5 4 -1.5
v 6 1 -1.5
v 6 2 -1.5
v 6 3 -1.5
v 7 0 -1.5
v 7 1 -1.5
v 7 2 -1.5
v 7 3 -1.5
f -48/3/4 -47/3/4 -44/3/4
f -46/3/4 -45/3/4 -43/3/4
f -43/3/4 -45/3/4 -42/3/4
f -48/3/4 -44/3/4 -41/3/4
f -44/4/4 -43/4/4 -40/4/4
f -41/3/4 -44/3/4 -40/3/4
f -43/2/4 -42/2/4 -39/2/4
f -40/4/4 -43/4/4 -39/4/4
f -39/2/4 -42/2/4 -38/2/4
f -39/1/4 -38/1/4 -36/1/4
f -38/4/4 -37/4/4 -36/4/4
f -36/4/4 -37/4/4 -35/4/4
f -41/4/4 -40/4/4 -34/4/4
f -40/2/4 -39/2/4 -33/2/4
f -34/4/4 -40/4/4 -33/4/4
f -39/1/4 -36/1/4 -32/1/4
f -33/2/4 -39/2/4 -32/2/4
f -32/1/4 -36/1/4 -31/1/4
f -34/2/4 -33/2/4 -30/2/4
f -33/2/4 -32/2/4 -30/2/4
f -30/2/4 -32/2/4 -29/2/4
f -29/2/4 -32/2/4 -28/2/4
f -29/3/4 -28/3/4 -27/3/4
f -27/3/4 -26/3/4 -24/3/4
f -29/3/4 -27/3/4 -24/3/4
f -26/4/4 -25/4/4 -23/4/4
f -24/3/4 -26/3/4 -23/3/4
f -23/4/4 -25/4/4 -22/4/4
f -30/1/4 -29/1/4 -21/1/4
f -29/3/4 -24/3/4 -20/3/4
f -21/1/4 -29/1/4 -20/1/4
f -20/3/4 -24/3/4 -19/3/4
f -21/2/4 -20/2/4 -18/2/4
f -20/2/4 -19/2/4 -18/2/4
f -18/2/4 -19/2/4 -17/2/4
f -17/2/4 -19/2/4 -16/2/4
f -16/1/4 -15/1/4 -14/1/4
f -18/4/4 -17/4/4 -12/4/4
f -17/2/4 -16/2/4 -11/2/4
f -12/4/4 -17/4/4 -11/4/4
f -16/1/4 -14/1/4 -10/1/4
f -11/2/4 -16/2/4 -10/2/4
f -14/4/4 -13/4/4 -9/4/4
f -10/1/4 -14/1/4 -9/1/4
f -9/4/4 -13/4/4 -8/4/4
f -11/4/4 -10/4/4 -7/4/4
f -12/3/4 -11/3/4 -7/3/4
f -10/2/4 -9/2/4 -6/2/4
f -7/4/4 -10/4/4 -6/4/4
f -6/2/4 -9/2/4 -5/2/4
f -12/3/4 -7/3/4 -4/3/4
f -4/3/4 -7/3/4 -3/3/4
f -6/3/4 -5/3/4 -2/3/4
f -2/3/4 -5/3/4 -1/3/4
v -7 0 1.5
v -5 0 1.5
v -3 0 1.5
v -2 0 1.5
v 2 0 1.5
v 3 0 1.5
v 5 0 1.5
v 7 0 1.5
v -8 0 0.5
v -7 0 0.5
v 7 0 0.5
v 8 0 0.5
v -8 0 -0.5
v -7 0 -0.5
v 7 0 -0.5
v 8 0 -0.5
v -7 0 -1.5
v -5 0 -1.5
v -3 0 -1.5
v -2 0 -1.5
v 2 0 -1.5
v 3 0 -1.5
v 5 0 -1.5
v 7 0 -1.5
f -15/3/5 -23/3/5 -24/3/5
f -14/3/5 -17/3/5 -18/3/5
f -12/5/5 -15/5/5 -16/5/5
f -11/3/5 -23/3/5 -15/3/5
f -11/5/5 -15/5/5 -12/5/5
f -10/5/5 -13/5/5 -14/5/5
f -10/3/5 -14/3/5 -18/3/5
f -9/5/5 -13/5/5 -10/5/5
f -8/3/5 -23/3/5 -11/3/5
f -7/4/5 -22/4/5 -23/4/5
f -7/3/5 -23/3/5 -8/3/5
f -6/2/5 -21/2/5 -22/2/5
f -6/4/5 -22/4/5 -7/4/5
f -5/1/5 -20/1/5 -21/1/5
f -5/2/5 -21/2/5 -6/2/5
f -4/2/5 -19/2/5 -20/2/5
f -4/1/5 -20/1/5 -5/1/5
f -3/4/5 -18/4/5 -19/4/5
f -3/2/5 -19/2/5 -4/2/5
f -2/3/5 -10/3/5 -18/3/5
f -2/4/5 -18/4/5 -3/4/5
f -1/3/5 -10/3/5 -2/3/5
v -7 2 1.5
v -6 2 1.5
v 6 2 1.5
v 7 2 1.5
v -8 2 0.5
v -7 2 0.5
v -6 2 0.5
v 6 2 0.5
v 7 2 0.5
v 8 2 0.5
v -8 2 -0.5
v -7 2 -0.5
v -6 2 -0.5
v 6 2 -0.5
v 7 2 -0.5
v 8 2 -0.5
v -7 2 -1.5
v -6 2 -1.5
v 6 2 -1.5
v 7 2 -1.5
f -15/3/5 -19/3/5 -20/3/5
f -14/3/5 -19/3/5 -15/3/5
f -13/3/5 -17/3/5 -18/3/5
f -12/3/5 -17/3/5 -13/3/5
f -10/5/5 -15/5/5 -16/5/5
f -9/5/5 -15/5/5 -10/5/5
f -6/5/5 -11/5/5 -12/5/5
f -5/5/5 -11/5/5 -6/5/5
f -4/3/5 -8/3/5 -9/3/5
f -3/3/5 -8/3/5 -4/3/5
f -2/3/5 -6/3/5 -7/3/5
f -1/3/5 -6/3/5 -2/3/5
v -7 1 1.5
v -6 1 1.5
v 6 1 1.5
v 7 1 1.5
v -8 1 0.5
v -7 1 0.5
v -6 1 0.5
v 6 1 0.5
v 7 1 0.5
v 8 1 0.5
v -8 1 -0.5
v -7 1 -0.5
v -6 1 -0.5
v 6 1 -0.5
v 7 1 -0.5
v 8 1 -0.5
v -7 1 -1.5
v -6 1 -1.5
v 6 1 -1.5
v 7 1 -1.5
f -20/3/6 -19/3/6 -15/3/6
f -15/3/6 -19/3/6 -14/3/6
f -18/3/6 -17/3/6 -13/3/6
f -13/3/6 -17/3/6 -12/3/6
f -16/5/6 -15/5/6 -10/5/6
f -10/5/6 -15/5/6 -9/5/6
f -12/5/6 -11/5/6 -6/5/6
f -6/5/6 -11/5/6 -5/5/6
f -9/3/6 -8/3/6 -4/3/6
f -4/3/6 -8/3/6 -3/3/6
f -7/3/6 -6/3/6 -2/3/6
f -2/3/6 -6/3/6 -1/3/6
v -3 2 1.5
v -2 2 1.5
v -1 2 1.5
v 1 2 1.5
v 2 2 1.5
v 3 2 1.5
v -3 2 0.5
v -2 2 0.5
v -1 2 0.5
v 1 2 0.5
v 2 2 0.5
v 3 2 0.5
v -3 2 -0.5
v -2 2 -0.5
v -1 2 -0.5
v 1 2 -0.5
v 2 2 -0.5
v 3 2 -0.5
v -3 2 -1.5
v -2 2 -1.5
v -1 2 -1.5
v 1 2 -1.5
v 2 2 -1.5
v 3 2 -1.5
f -24/2/6 -23/2/6 -18/2/6
f -23/3/6 -22/3/6 -17/3/6
f -18/2/6 -23/2/6 -17/2/6
f -17/3/6 -22/3/6 -16/3/6
f -21/3/6 -20/3/6 -15/3/6
f -20/2/6 -19/2/6 -14/2/6
f -15/3/6 -20/3/6 -14/3/6
f -14/2/6 -19/2/6 -13/2/6
f -12/2/6 -11/2/6 -6/2/6
f -11/3/6 -10/3/6 -5/3/6
f -6/2/6 -11/2/6 -5/2/6
f -5/3/6 -10/3/6 -4/3/6
f -9/3/6 -8/3/6 -3/3/6
f -8/2/6 -7/2/6 -2/2/6
f -3/3/6 -8/3/6 -2/3/6
f -2/2/6 -7/2/6 -1/2/6
v -7 3 1.5
v -6 3 1.5
v -5 3 1.5
v -4 3 1.5
v -3 3 1.5
v 3 3 1.5
v 4 3 1.5
v 5 3 1.5
v 6 3 1.5
v 7 3 1.5
v -8 3 0.5
v -7 3 0.5
v -6 3 0.5
v -5 3 0.5
v -4 3 0.5
v -3 3 0.5
v 3 3 0.5
v 4 3 0.5
v 5 3 0.5
v 6 3 0.5
v 7 3 0.5
v 8 3 0.5
v -8 3 -0.5
v -7 3 -0.5
v -6 3 -0.5
v -5 3 -0.5
v -4 3 -0.5
v -3 3 -0.5
v 3 3 -0.5
v 4 3 -0.5
v 5 3 -0.5
v 6 3 -0.5
v 7 3 -0.5
v 8 3 -0.5
v -7 3 -1.5
v -6 3 -1.5
v -5 3 -1.5
v -4 3 -1.5
v -3 3 -1.5
v 3 3 -1.5
v 4 3 -1.5
v 5 3 -1.5
v 6 3 -1.5
v 7 3 -1.5
f -44/3/6 -43/3/6 -33/3/6
f -43/2/6 -42/2/6 -32/2/6
f -33/3/6 -43/3/6 -32/3/6
f -32/2/6 -42/2/6 -31/2/6
f -41/1/6 -40/1/6 -30/1/6
f -30/1/6 -40/1/6 -29/1/6
f -39/1/6 -38/1/6 -28/1/6
f -28/1/6 -38/1/6 -27/1/6
f -37/2/6 -36/2/6 -26/2/6
f -36/3/6 -35/3/6 -25/3/6
f -26/2/6 -36/2/6 -25/2/6
f -25/3/6 -35/3/6 -24/3/6
f -34/5/6 -33/5/6 -22/5/6
f -22/5/6 -33/5/6 -21/5/6
f -24/5/6 -23/5/6 -12/5/6
f -12/5/6 -23/5/6 -11/5/6
f -21/3/6 -20/3/6 -10/3/6
f -20/2/6 -19/2/6 -9/2/6
f -10/3/6 -20/3/6 -9/3/6
f -9/2/6 -19/2/6 -8/2/6
f -18/1/6 -17/1/6 -7/1/6
f -7/1/6 -17/1/6 -6/1/6
f -16/1/6 -15/1/6 -5/1/6
f -5/1/6 -15/1/6 -4/1/6
f -14/2/6 -13/2/6 -3/2/6
f -13/3/6 -12/3/6 -2/3/6
f -3/2/6 -13/2/6 -2/2/6
f -2/3/6 -12/3/6 -1/3/6
v -5 4 1.5
v -4 4 1.5
v -1 4 1.5
v 1 4 1.5
v 4 4 1.5
v 5 4 1.5
v -7 4 0.5
v -5 4 0.5
v -4 4 0.5
v -2 4 0.5
v -1 4 0.5
v 1 4 0.5
v 2 4 0.5
v 4 4 0.5
v 5 4 0.5
v 7 4 0.5
v -7 4 -0.5
v -5 4 -0.5
v -4 4 -0.5
v -2 4 -0.5
v -1 4 -0.5
v 1 4 -0.5
v 2 4 -0.5
v 4 4 -0.5
v 5 4 -0.5
v 7 4 -0.5
v -5 4 -1.5
v -4 4 -1.5
v -1 4 -1.5
v 1 4 -1.5
v 4 4 -1.5
v 5 4 -1.5
f -32/4/6 -31/4/6 -25/4/6
f -25/4/6 -31/4/6 -24/4/6
f -30/4/6 -29/4/6 -22/4/6
f -22/4/6 -29/4/6 -21/4/6
f -28/4/6 -27/4/6 -19/4/6
f -19/4/6 -27/4/6 -18/4/6
f -26/5/6 -25/5/6 -16/5/6
f -16/5/6 -25/5/6 -15/5/6
f -23/5/6 -22/5/6 -13/5/6
f -22/4/6 -21/4/6 -12/4/6
f -13/5/6 -22/5/6 -12/5/6
f -21/5/6 -20/5/6 -11/5/6
f -12/4/6 -21/4/6 -11/4/6
f -11/5/6 -20/5/6 -10/5/6
f -18/5/6 -17/5/6 -8/5/6
f -8/5/6 -17/5/6 -7/5/6
f -15/4/6 -14/4/6 -6/4/6
f -6/4/6 -14/4/6 -5/4/6
f -12/4/6 -11/4/6 -4/4/6
f -4/4/6 -11/4/6 -3/4/6
f -9/4/6 -8/4/6 -2/4/6
f -2/4/6 -8/4/6 -1/4/6
v -5 5 0.5
v -2 5 0.5
v 2 5 0.5
v 5 5 0.5
v -5 5 -0.5
v -2 5 -0.5
v 2 5 -0.5
v 5 5 -0.5
f -8/5/6 -7/5/6 -4/5/6
f -4/5/6 -7/5/6 -3/5/6
f -6/5/6 -5/5/6 -2/5/6
f -2/5/6 -5/5/6 -1/5/6
