# MagicaVoxel @ ephtracy

# material
mtllib _untitled.mtl
usemtl palette

# normals
vn -1 0 0
vn 1 0 0
vn 0 0 1
vn 0 0 -1
vn 0 -1 0
vn 0 1 0

# texcoords
vt 0.00195313 0.5
vt 0.306641 0.5
vt 0.470703 0.5

# verts and faces
v -8 0 1.5
v -8 0 -1.5
v -8 11 1.5
v -8 11 0.5
v -8 11 -0.5
v -8 11 -1.5
v -8 12 0.5
v -8 12 -0.5
f -6/3/1 -7/3/1 -8/3/1
f -5/3/1 -7/3/1 -6/3/1
f -4/3/1 -7/3/1 -5/3/1
f -3/3/1 -7/3/1 -4/3/1
f -2/1/1 -4/1/1 -5/1/1
f -1/1/1 -4/1/1 -2/1/1
v -3 11 1.5
v -3 11 0.5
v -3 11 -0.5
v -3 11 -1.5
v -3 12 1.5
v -3 12 0.5
v -3 12 -0.5
v -3 12 -1.5
v -3 13 0.5
v -3 13 -0.5
f -6/2/1 -9/2/1 -10/2/1
f -5/2/1 -9/2/1 -6/2/1
f -4/2/1 -7/2/1 -8/2/1
f -3/2/1 -7/2/1 -4/2/1
f -2/1/1 -4/1/1 -5/1/1
f -1/1/1 -4/1/1 -2/1/1
v 0 12 1.5
v 0 12 0.5
v 0 12 -0.5
v 0 12 -1.5
v 0 13 1.5
v 0 13 0.5
v 0 13 -0.5
v 0 13 -1.5
v 0 14 0.5
v 0 14 -0.5
f -6/2/1 -9/2/1 -10/2/1
f -5/2/1 -9/2/1 -6/2/1
f -4/2/1 -7/2/1 -8/2/1
f -3/2/1 -7/2/1 -4/2/1
f -2/1/1 -4/1/1 -5/1/1
f -1/1/1 -4/1/1 -2/1/1
v 2 13 1.5
v 2 13 0.5
v 2 13 -0.5
v 2 13 -1.5
v 2 14 1.5
v 2 14 0.5
v 2 14 -0.5
v 2 14 -1.5
v 2 15 0.5
v 2 15 -0.5
f -6/3/1 -9/3/1 -10/3/1
f -5/3/1 -9/3/1 -6/3/1
f -4/3/1 -7/3/1 -8/3/1
f -3/3/1 -7/3/1 -4/3/1
f -2/1/1 -4/1/1 -5/1/1
f -1/1/1 -4/1/1 -2/1/1
v 5 13 1.5
v 5 13 0.5
v 5 13 -0.5
v 5 13 -1.5
v 5 14 1.5
v 5 14 0.5
v 5 14 -0.5
v 5 14 -1.5
v 5 15 0.5
v 5 15 -0.5
f -10/2/2 -9/2/2 -6/2/2
f -6/2/2 -9/2/2 -5/2/2
f -8/2/2 -7/2/2 -4/2/2
f -4/2/2 -7/2/2 -3/2/2
f -5/1/2 -4/1/2 -2/1/2
f -2/1/2 -4/1/2 -1/1/2
v 6 12 1.5
v 6 12 0.5
v 6 12 -0.5
v 6 12 -1.5
v 6 13 1.5
v 6 13 0.5
v 6 13 -0.5
v 6 13 -1.5
v 6 14 0.5
v 6 14 -0.5
f -10/2/2 -9/2/2 -6/2/2
f -6/2/2 -9/2/2 -5/2/2
f -8/2/2 -7/2/2 -4/2/2
f -4/2/2 -7/2/2 -3/2/2
f -5/1/2 -4/1/2 -2/1/2
f -2/1/2 -4/1/2 -1/1/2
v 8 0 1.5
v 8 0 -1.5
v 8 11 1.5
v 8 11 -1.5
v 8 12 1.5
v 8 12 0.5
v 8 12 -0.5
v 8 12 -1.5
v 8 13 0.5
v 8 13 -0.5
f -10/3/2 -9/3/2 -8/3/2
f -8/3/2 -9/3/2 -7/3/2
f -8/2/2 -7/2/2 -6/2/2
f -6/2/2 -7/2/2 -5/2/2
f -5/2/2 -7/2/2 -4/2/2
f -4/2/2 -7/2/2 -3/2/2
f -5/1/2 -4/1/2 -2/1/2
f -2/1/2 -4/1/2 -1/1/2
v -8 0 1.5
v -8 11 1.5
v -7 10 1.5
v -7 11 1.5
v -4 10 1.5
v -4 11 1.5
v -3 11 1.5
v -3 12 1.5
v -2 11 1.5
v -2 12 1.5
v 0 12 1.5
v 0 13 1.5
v 1 12 1.5
v 1 13 1.5
v 2 13 1.5
v 2 14 1.5
v 4 13 1.5
v 4 14 1.5
v 5 12 1.5
v 5 13 1.5
v 5 14 1.5
v 6 12 1.5
v 6 13 1.5
v 7 11 1.5
v 7 12 1.5
v 8 0 1.5
v 8 11 1.5
v 8 12 1.5
f -26/3/3 -27/3/3 -28/3/3
f -25/3/3 -27/3/3 -26/3/3
f -24/3/3 -26/3/3 -28/3/3
f -24/2/3 -25/2/3 -26/2/3
f -23/2/3 -25/2/3 -24/2/3
f -22/3/3 -23/3/3 -24/3/3
f -20/3/3 -22/3/3 -24/3/3
f -20/2/3 -21/2/3 -22/2/3
f -19/2/3 -21/2/3 -20/2/3
f -18/3/3 -19/3/3 -20/3/3
f -16/3/3 -18/3/3 -20/3/3
f -16/2/3 -17/2/3 -18/2/3
f -15/2/3 -17/2/3 -16/2/3
f -14/3/3 -15/3/3 -16/3/3
f -12/3/3 -14/3/3 -16/3/3
f -12/3/3 -13/3/3 -14/3/3
f -11/3/3 -13/3/3 -12/3/3
f -10/3/3 -16/3/3 -20/3/3
f -10/3/3 -12/3/3 -16/3/3
f -9/2/3 -11/2/3 -12/2/3
f -9/3/3 -12/3/3 -10/3/3
f -8/2/3 -11/2/3 -9/2/3
f -7/3/3 -10/3/3 -20/3/3
f -7/2/3 -9/2/3 -10/2/3
f -6/2/3 -9/2/3 -7/2/3
f -5/3/3 -20/3/3 -24/3/3
f -5/3/3 -7/3/3 -20/3/3
f -4/3/3 -7/3/3 -5/3/3
f -3/3/3 -24/3/3 -28/3/3
f -3/3/3 -5/3/3 -24/3/3
f -2/2/3 -4/2/3 -5/2/3
f -2/3/3 -5/3/3 -3/3/3
f -1/2/3 -4/2/3 -2/2/3
v -8 11 0.5
v -8 12 0.5
v -7 11 0.5
v -4 11 0.5
v -3 11 0.5
v -3 12 0.5
v -3 13 0.5
v -2 12 0.5
v 0 12 0.5
v 0 13 0.5
v 0 14 0.5
v 1 13 0.5
v 2 13 0.5
v 2 14 0.5
v 2 15 0.5
v 4 14 0.5
v 5 13 0.5
v 5 14 0.5
v 5 15 0.5
v 6 12 0.5
v 6 13 0.5
v 6 14 0.5
v 7 12 0.5
v 8 12 0.5
v 8 13 0.5
f -23/1/3 -24/1/3 -25/1/3
f -22/1/3 -24/1/3 -23/1/3
f -21/1/3 -24/1/3 -22/1/3
f -20/1/3 -24/1/3 -21/1/3
f -18/1/3 -19/1/3 -20/1/3
f -17/1/3 -19/1/3 -18/1/3
f -16/1/3 -19/1/3 -17/1/3
f -14/1/3 -15/1/3 -16/1/3
f -13/1/3 -15/1/3 -14/1/3
f -12/1/3 -15/1/3 -13/1/3
f -10/1/3 -11/1/3 -12/1/3
f -8/1/3 -11/1/3 -10/1/3
f -7/1/3 -11/1/3 -8/1/3
f -5/1/3 -8/1/3 -9/1/3
f -4/1/3 -8/1/3 -5/1/3
f -3/1/3 -5/1/3 -6/1/3
f -2/1/3 -5/1/3 -3/1/3
f -1/1/3 -5/1/3 -2/1/3
v -8 11 -0.5
v -8 12 -0.5
v -7 11 -0.5
v -4 11 -0.5
v -3 11 -0.5
v -3 12 -0.5
v -3 13 -0.5
v -2 12 -0.5
v 0 12 -0.5
v 0 13 -0.5
v 0 14 -0.5
v 1 13 -0.5
v 2 13 -0.5
v 2 14 -0.5
v 2 15 -0.5
v 4 14 -0.5
v 5 13 -0.5
v 5 14 -0.5
v 5 15 -0.5
v 6 12 -0.5
v 6 13 -0.5
v 6 14 -0.5
v 7 12 -0.5
v 8 12 -0.5
v 8 13 -0.5
f -25/1/4 -24/1/4 -23/1/4
f -23/1/4 -24/1/4 -22/1/4
f -22/1/4 -24/1/4 -21/1/4
f -21/1/4 -24/1/4 -20/1/4
f -20/1/4 -19/1/4 -18/1/4
f -18/1/4 -19/1/4 -17/1/4
f -17/1/4 -19/1/4 -16/1/4
f -16/1/4 -15/1/4 -14/1/4
f -14/1/4 -15/1/4 -13/1/4
f -13/1/4 -15/1/4 -12/1/4
f -12/1/4 -11/1/4 -10/1/4
f -10/1/4 -11/1/4 -8/1/4
f -8/1/4 -11/1/4 -7/1/4
f -9/1/4 -8/1/4 -5/1/4
f -5/1/4 -8/1/4 -4/1/4
f -6/1/4 -5/1/4 -3/1/4
f -3/1/4 -5/1/4 -2/1/4
f -2/1/4 -5/1/4 -1/1/4
v -8 0 -1.5
v -8 11 -1.5
v -7 10 -1.5
v -7 11 -1.5
v -4 10 -1.5
v -4 11 -1.5
v -3 11 -1.5
v -3 12 -1.5
v -2 11 -1.5
v -2 12 -1.5
v 0 12 -1.5
v 0 13 -1.5
v 1 12 -1.5
v 1 13 -1.5
v 2 13 -1.5
v 2 14 -1.5
v 4 13 -1.5
v 4 14 -1.5
v 5 12 -1.5
v 5 13 -1.5
v 5 14 -1.5
v 6 12 -1.5
v 6 13 -1.5
v 7 11 -1.5
v 7 12 -1.5
v 8 0 -1.5
v 8 11 -1.5
v 8 12 -1.5
f -28/3/4 -27/3/4 -26/3/4
f -26/3/4 -27/3/4 -25/3/4
f -28/3/4 -26/3/4 -24/3/4
f -26/2/4 -25/2/4 -24/2/4
f -24/2/4 -25/2/4 -23/2/4
f -24/3/4 -23/3/4 -22/3/4
f -24/3/4 -22/3/4 -20/3/4
f -22/2/4 -21/2/4 -20/2/4
f -20/2/4 -21/2/4 -19/2/4
f -20/3/4 -19/3/4 -18/3/4
f -20/3/4 -18/3/4 -16/3/4
f -18/2/4 -17/2/4 -16/2/4
f -16/2/4 -17/2/4 -15/2/4
f -16/3/4 -15/3/4 -14/3/4
f -16/3/4 -14/3/4 -12/3/4
f -14/3/4 -13/3/4 -12/3/4
f -12/3/4 -13/3/4 -11/3/4
f -20/3/4 -16/3/4 -10/3/4
f -16/3/4 -12/3/4 -10/3/4
f -12/2/4 -11/2/4 -9/2/4
f -10/3/4 -12/3/4 -9/3/4
f -9/2/4 -11/2/4 -8/2/4
f -20/3/4 -10/3/4 -7/3/4
f -10/2/4 -9/2/4 -7/2/4
f -7/2/4 -9/2/4 -6/2/4
f -24/3/4 -20/3/4 -5/3/4
f -20/3/4 -7/3/4 -5/3/4
f -5/3/4 -7/3/4 -4/3/4
f -28/3/4 -24/3/4 -3/3/4
f -24/3/4 -5/3/4 -3/3/4
f -5/2/4 -4/2/4 -2/2/4
f -3/3/4 -5/3/4 -2/3/4
f -2/2/4 -4/2/4 -1/2/4
v -8 0 1.5
v 8 0 1.5
v -8 0 -1.5
v 8 0 -1.5
f -2/3/5 -3/3/5 -4/3/5
f -1/3/5 -3/3/5 -2/3/5
v -8 11 1.5
v -7 11 1.5
v -4 11 1.5
v -3 11 1.5
v -8 11 0.5
v -7 11 0.5
v -4 11 0.5
v -3 11 0.5
v -8 11 -0.5
v -7 11 -0.5
v -4 11 -0.5
v -3 11 -0.5
v -8 11 -1.5
v -7 11 -1.5
v -4 11 -1.5
v -3 11 -1.5
f -16/3/6 -15/3/6 -12/3/6
f -15/2/6 -14/2/6 -11/2/6
f -12/3/6 -15/3/6 -11/3/6
f -14/3/6 -13/3/6 -10/3/6
f -11/2/6 -14/2/6 -10/2/6
f -10/3/6 -13/3/6 -9/3/6
f -8/3/6 -7/3/6 -4/3/6
f -7/2/6 -6/2/6 -3/2/6
f -4/3/6 -7/3/6 -3/3/6
f -6/3/6 -5/3/6 -2/3/6
f -3/2/6 -6/2/6 -2/2/6
f -2/3/6 -5/3/6 -1/3/6
v -3 12 1.5
v -2 12 1.5
v 0 12 1.5
v 6 12 1.5
v 7 12 1.5
v 8 12 1.5
v -8 12 0.5
v -3 12 0.5
v -2 12 0.5
v 0 12 0.5
v 6 12 0.5
v 7 12 0.5
v 8 12 0.5
v -8 12 -0.5
v -3 12 -0.5
v -2 12 -0.5
v 0 12 -0.5
v 6 12 -0.5
v 7 12 -0.5
v 8 12 -0.5
v -3 12 -1.5
v -2 12 -1.5
v 0 12 -1.5
v 6 12 -1.5
v 7 12 -1.5
v 8 12 -1.5
f -26/2/6 -25/2/6 -19/2/6
f -25/3/6 -24/3/6 -18/3/6
f -19/2/6 -25/2/6 -18/2/6
f -18/3/6 -24/3/6 -17/3/6
f -23/3/6 -22/3/6 -16/3/6
f -22/2/6 -21/2/6 -15/2/6
f -16/3/6 -22/3/6 -15/3/6
f -15/2/6 -21/2/6 -14/2/6
f -20/1/6 -19/1/6 -13/1/6
f -13/1/6 -19/1/6 -12/1/6
f -12/2/6 -11/2/6 -6/2/6
f -11/3/6 -10/3/6 -5/3/6
f -6/2/6 -11/2/6 -5/2/6
f -5/3/6 -10/3/6 -4/3/6
f -9/3/6 -8/3/6 -3/3/6
f -8/2/6 -7/2/6 -2/2/6
f -3/3/6 -8/3/6 -2/3/6
f -2/2/6 -7/2/6 -1/2/6
v 0 13 1.5
v 1 13 1.5
v 2 13 1.5
v 5 13 1.5
v 6 13 1.5
v -3 13 0.5
v 0 13 0.5
v 1 13 0.5
v 2 13 0.5
v 5 13 0.5
v 6 13 0.5
v 8 13 0.5
v -3 13 -0.5
v 0 13 -0.5
v 1 13 -0.5
v 2 13 -0.5
v 5 13 -0.5
v 6 13 -0.5
v 8 13 -0.5
v 0 13 -1.5
v 1 13 -1.5
v 2 13 -1.5
v 5 13 -1.5
v 6 13 -1.5
f -24/2/6 -23/2/6 -18/2/6
f -23/3/6 -22/3/6 -17/3/6
f -18/2/6 -23/2/6 -17/2/6
f -17/3/6 -22/3/6 -16/3/6
f -21/2/6 -20/2/6 -15/2/6
f -15/2/6 -20/2/6 -14/2/6
f -19/1/6 -18/1/6 -12/1/6
f -12/1/6 -18/1/6 -11/1/6
f -14/1/6 -13/1/6 -7/1/6
f -7/1/6 -13/1/6 -6/1/6
f -11/2/6 -10/2/6 -5/2/6
f -10/3/6 -9/3/6 -4/3/6
f -5/2/6 -10/2/6 -4/2/6
f -4/3/6 -9/3/6 -3/3/6
f -8/2/6 -7/2/6 -2/2/6
f -2/2/6 -7/2/6 -1/2/6
v 2 14 1.5
v 4 14 1.5
v 5 14 1.5
v 0 14 0.5
v 2 14 0.5
v 4 14 0.5
v 5 14 0.5
v 6 14 0.5
v 0 14 -0.5
v 2 14 -0.5
v 4 14 -0.5
v 5 14 -0.5
v 6 14 -0.5
v 2 14 -1.5
v 4 14 -1.5
v 5 14 -1.5
f -16/3/6 -15/3/6 -12/3/6
f -15/2/6 -14/2/6 -11/2/6
f -12/3/6 -15/3/6 -11/3/6
f -11/2/6 -14/2/6 -10/2/6
f -13/1/6 -12/1/6 -8/1/6
f -8/1/6 -12/1/6 -7/1/6
f -10/1/6 -9/1/6 -5/1/6
f -5/1/6 -9/1/6 -4/1/6
f -7/3/6 -6/3/6 -3/3/6
f -6/2/6 -5/2/6 -2/2/6
f -3/3/6 -6/3/6 -2/3/6
f -2/2/6 -5/2/6 -1/2/6
v 2 15 0.5
v 5 15 0.5
v 2 15 -0.5
v 5 15 -0.5
f -4/1/6 -3/1/6 -2/1/6
f -2/1/6 -3/1/6 -1/1/6
